<?xml version="1.0" standalone="no"?>
<!DOCTYPE svg PUBLIC "-//W3C//DTD SVG 20010904//EN"
 "http://www.w3.org/TR/2001/REC-SVG-20010904/DTD/svg10.dtd">
<svg version="1.0" xmlns="http://www.w3.org/2000/svg"
 width="1852.000000pt" height="681.000000pt" viewBox="0 0 1852.000000 681.000000"
 preserveAspectRatio="xMidYMid meet">
<metadata>
Created by potrace 1.15, written by Peter Selinger 2001-2017
</metadata>
<g transform="translate(0.000000,681.000000) scale(0.100000,-0.100000)"
fill="#000000" stroke="none">
<path d="M0 3405 l0 -3405 9260 0 9260 0 0 3405 0 3405 -9260 0 -9260 0 0
-3405z m2990 1894 c67 -15 216 -91 295 -151 384 -291 747 -937 879 -1563 90
-432 87 -789 -10 -1115 -156 -520 -510 -852 -1009 -946 -136 -26 -431 -26
-559 -1 -191 38 -330 95 -476 192 -415 276 -646 830 -600 1444 31 423 142 818
341 1211 136 270 297 498 470 666 194 187 363 273 539 273 47 0 105 -4 130
-10z m4317 -1134 c138 -517 259 -969 269 -1005 l17 -64 12 34 c6 19 128 473
271 1007 l259 973 903 0 902 0 0 -1705 0 -1705 -510 0 -510 0 -2 1369 -3 1370
-366 -1367 -366 -1367 -588 0 -588 0 -366 1366 -366 1366 -3 -1369 -2 -1368
-510 0 -510 0 0 1705 0 1705 902 -2 903 -3 252 -940z m5833 485 l0 -460 -475
0 -475 0 0 -1245 0 -1245 -512 2 -513 3 -3 1243 -2 1242 -475 0 -475 0 0 460
0 460 1465 0 1465 0 0 -460z m3680 0 l0 -460 -774 0 c-933 0 -1044 -7 -1261
-77 -251 -81 -427 -247 -489 -463 -56 -199 -33 -459 56 -620 105 -190 291
-306 594 -372 96 -21 127 -22 984 -27 l885 -6 0 -460 0 -460 -740 -3 c-979 -4
-1213 9 -1530 87 -812 199 -1280 720 -1334 1482 -12 159 0 350 30 504 147 764
791 1246 1769 1324 58 4 489 9 958 10 l852 1 0 -460z"/>
</g>
</svg>
